<svg xmlns="http://www.w3.org/2000/svg" xmlns:xlink="http://www.w3.org/1999/xlink" width="749" zoomAndPan="magnify" viewBox="0 0 561.75 561.750005" height="749" preserveAspectRatio="xMidYMid meet" version="1.0"><defs><clipPath id="fe1b564df1"><path d="M 0 0 L 459 0 L 459 561.5 L 0 561.5 Z M 0 0 " clip-rule="nonzero"/></clipPath><clipPath id="3419edfa13"><path d="M 331 219 L 561.5 219 L 561.5 561.5 L 331 561.5 Z M 331 219 " clip-rule="nonzero"/></clipPath><clipPath id="1dc552f9f3"><path d="M 98.460938 358.796875 L 156.007812 358.796875 L 156.007812 416.339844 L 98.460938 416.339844 Z M 98.460938 358.796875 " clip-rule="nonzero"/></clipPath><clipPath id="0cecf5012f"><path d="M 127.234375 358.796875 C 111.34375 358.796875 98.460938 371.679688 98.460938 387.570312 C 98.460938 403.460938 111.34375 416.339844 127.234375 416.339844 C 143.125 416.339844 156.007812 403.460938 156.007812 387.570312 C 156.007812 371.679688 143.125 358.796875 127.234375 358.796875 Z M 127.234375 358.796875 " clip-rule="nonzero"/></clipPath></defs><g clip-path="url(#fe1b564df1)"><path fill="#000000" d="M 100.332031 576.332031 L 190.484375 355.4375 L 280.898438 468.550781 L 424.753906 150.882812 L 458.394531 166.117188 L 442.007812 0.191406 L 306.492188 97.328125 L 340.136719 112.5625 L 258.8125 292.140625 L 164.261719 173.859375 L -0.00390625 576.332031 L 100.332031 576.332031 " fill-opacity="1" fill-rule="nonzero"/></g><g clip-path="url(#3419edfa13)"><path fill="#000000" d="M 460.992188 576.332031 L 561.324219 576.332031 L 415.5 219.035156 L 331.359375 404.828125 L 370.839844 355.4375 L 460.992188 576.332031 " fill-opacity="1" fill-rule="nonzero"/></g><g clip-path="url(#1dc552f9f3)"><g clip-path="url(#0cecf5012f)"><path fill="#000000" d="M 98.460938 358.796875 L 156.007812 358.796875 L 156.007812 416.339844 L 98.460938 416.339844 Z M 98.460938 358.796875 " fill-opacity="1" fill-rule="nonzero"/></g></g></svg>